<?xml version="1.0" encoding="UTF-8"?>
<svg version="1.1" xmlns="http://www.w3.org/2000/svg" width="512" height="512">
<path d="M0 0 C9.69545146 8.65883086 18.69450082 17.90237897 26.58984375 28.2421875 C27.00266602 28.77328125 27.41548828 29.304375 27.84082031 29.8515625 C62.11952231 74.10178921 81.90737491 132.63235647 75.2578125 188.796875 C74.84097462 191.92625955 74.20519037 194.93481181 73.453125 198 C72.28182359 203.18767371 72.70784772 205.79535764 75.5234375 210.4140625 C76.35206613 211.61095182 77.18710917 212.803417 78.02734375 213.9921875 C92.74029473 235.50206995 110.17119124 261.59184891 106.22265625 288.76953125 C104.25424058 296.44095943 98.49014395 302.71710426 91.953125 306.94921875 C80.40609223 312.93848687 69.93016289 311.59429512 57.80029297 307.96533203 C47.34554058 304.54507838 37.55918681 299.42261411 28.02734375 293.9921875 C27.23191162 293.54085449 26.43647949 293.08952148 25.61694336 292.62451172 C20.87425332 289.84312819 16.71396044 286.84140705 12.66723633 283.11450195 C6.61411919 278.1276952 6.61411919 278.1276952 -0.74278259 276.20375061 C-3.34140348 276.63654811 -5.85098493 277.23447825 -8.40234375 277.890625 C-18.07197018 279.96147953 -27.47851493 280.67954008 -37.33984375 280.74609375 C-38.02809235 280.75210413 -38.71634094 280.75811451 -39.42544556 280.76430702 C-43.66128256 280.79822726 -47.89685415 280.80723483 -52.1328125 280.80554199 C-57.859463 280.80326848 -63.58570732 280.81780497 -69.31219864 280.86112785 C-71.28231934 280.87081102 -73.25250399 280.86190109 -75.22262573 280.85243225 C-85.06001409 280.9085612 -94.07334533 282.15110709 -101.41015625 289.2421875 C-107.31981812 296.48628915 -110.00042842 303.69745498 -109.87109375 313.07421875 C-109.11602928 318.26368725 -107.03255214 322.81114747 -104.91796875 327.56640625 C-99.63006929 340.45737359 -99.286332 356.26041725 -104.09375 369.359375 C-111.31762976 385.17902861 -122.52326105 394.88051456 -138.41015625 401.2421875 C-172.22019575 413.68760081 -222.26818934 395.79818233 -253.17529297 381.72167969 C-274.0294183 371.96473673 -293.07748915 359.22010276 -309.9296875 343.53515625 C-312.04525373 341.57950684 -314.20258916 339.71652869 -316.41015625 337.8671875 C-355.25967892 303.82460374 -377.89268859 250.61802696 -384.41015625 200.2421875 C-384.50441895 199.54730225 -384.59868164 198.85241699 -384.69580078 198.13647461 C-391.42464708 141.51907107 -376.14434557 80.65867408 -341.28515625 35.3046875 C-340.15585194 33.87597689 -339.02518192 32.44816123 -337.87329102 31.03759766 C-336.72538095 29.62899919 -335.59052053 28.2097647 -334.46069336 26.78662109 C-329.06494392 20.05663055 -323.33956541 13.82063976 -317.22265625 7.7421875 C-316.30355469 6.82727539 -315.38445312 5.91236328 -314.4375 4.96972656 C-307.47406982 -1.87910935 -300.3501738 -8.08358101 -292.41015625 -13.7578125 C-291.37246094 -14.51707031 -290.33476562 -15.27632812 -289.265625 -16.05859375 C-212.11966645 -71.13567143 -103.76447065 -73.81122804 0 0 Z M-294.41015625 30.2421875 C-295.3125 31.08007812 -296.21484375 31.91796875 -297.14453125 32.78125 C-309.74819643 44.83851351 -319.65822739 59.22410739 -328.41015625 74.2421875 C-328.76416504 74.8417627 -329.11817383 75.44133789 -329.48291016 76.05908203 C-355.22657419 120.11686839 -360.04415651 174.67573943 -347.78515625 223.6171875 C-338.95603057 257.04815766 -321.18715489 286.3782885 -297.41015625 311.2421875 C-296.53617188 312.16902344 -295.6621875 313.09585937 -294.76171875 314.05078125 C-287.84316141 321.20266237 -280.42042832 327.37361834 -272.41015625 333.2421875 C-271.84377441 333.65823242 -271.27739258 334.07427734 -270.69384766 334.50292969 C-245.61393901 352.65257951 -216.79518153 363.93172581 -186.41015625 369.2421875 C-185.68038574 369.37206055 -184.95061523 369.50193359 -184.19873047 369.63574219 C-175.96491002 371.04118034 -167.74788276 371.46842911 -159.41015625 371.6171875 C-158.10087158 371.65646362 -158.10087158 371.65646362 -156.76513672 371.6965332 C-149.84292457 371.71448017 -144.82178502 369.99696044 -139.421875 365.63671875 C-134.86720313 360.1952966 -131.99366561 354.36038051 -132.34765625 347.1171875 C-133.11995059 342.09727428 -135.22375849 337.55063068 -137.17211914 332.89868164 C-143.05885832 318.63294193 -143.17391639 302.69961762 -137.64404297 288.23876953 C-130.21136182 270.53409779 -118.35978423 259.85373536 -100.8203125 252.28515625 C-91.60101908 249.46550981 -82.22757376 248.92899821 -72.64453125 248.828125 C-71.48512024 248.80875885 -70.32570923 248.7893927 -69.13116455 248.7694397 C-65.47423363 248.71026776 -61.81727015 248.66351062 -58.16015625 248.6171875 C-55.66144557 248.57895019 -53.16274726 248.53989524 -50.6640625 248.5 C-44.57953794 248.40461852 -38.49493716 248.31939382 -32.41015625 248.2421875 C-35.53563577 245.1136216 -38.66782243 241.9921147 -41.80859375 238.87890625 C-43.46751323 237.22923234 -45.12636557 235.57949092 -46.78515625 233.9296875 C-47.61015625 233.11306641 -48.43515625 232.29644531 -49.28515625 231.45507812 C-54.20955043 226.55022519 -58.91885195 221.54577741 -63.41015625 216.2421875 C-63.96300293 215.59596436 -64.51584961 214.94974121 -65.08544922 214.28393555 C-75.52504226 202.01461389 -84.85232118 189.29434161 -93.16015625 175.4921875 C-93.53648193 174.87666016 -93.91280762 174.26113281 -94.30053711 173.62695312 C-96.04980245 170.72145945 -97.53314173 167.95034628 -98.85546875 164.8125 C-101.38683613 159.0444161 -101.38683613 159.0444161 -106.30908203 155.37792969 C-110.27985555 154.10283786 -114.32805228 153.28475384 -118.40625 152.43359375 C-137.28220544 148.34809312 -154.9162462 134.2288563 -165.22265625 118.3046875 C-175.88114102 101.18915728 -179.00821374 83.28187443 -181.75756836 63.61499023 C-182.22546817 60.28467343 -182.71443649 56.95789321 -183.20507812 53.63085938 C-183.51037694 51.49236734 -183.81445723 49.35370091 -184.1171875 47.21484375 C-184.26291702 46.23137466 -184.40864655 45.24790558 -184.55879211 44.2346344 C-185.50231179 37.32741955 -185.9782487 31.32029491 -182.72265625 24.9296875 C-180.0197126 21.78842866 -178.34842473 20.55494366 -174.41015625 19.2421875 C-167.37093817 18.72245523 -160.45123587 19.58951635 -153.49609375 20.59765625 C-152.48277985 20.7411702 -151.46946594 20.88468414 -150.42544556 21.032547 C-148.29205026 21.33741588 -146.15918876 21.64604166 -144.02685547 21.95825195 C-140.81668667 22.42510208 -137.6040094 22.87035286 -134.390625 23.31445312 C-112.21290703 26.47256823 -92.38570432 31.78038257 -75.41015625 47.2421875 C-74.70375 47.85578125 -73.99734375 48.469375 -73.26953125 49.1015625 C-60.11208441 61.22298991 -51.73053795 79.49725131 -48.796875 96.875 C-46.82198625 101.67036367 -43.93675605 102.74837581 -39.41015625 104.9296875 C-37.76744479 105.78125535 -36.12820957 106.63955646 -34.4921875 107.50390625 C-33.22882568 108.1697876 -33.22882568 108.1697876 -31.93994141 108.84912109 C-4.62531457 123.89035452 18.8424568 146.19598149 40.58984375 168.2421875 C41.92206458 169.57663241 43.25494087 170.91042557 44.58984375 172.2421875 C45.56178157 128.96095634 30.06216456 85.26770292 3.58984375 51.2421875 C2.93580566 50.39769043 2.93580566 50.39769043 2.26855469 49.53613281 C-17.89615211 23.86496908 -43.62914458 3.5963439 -73.41015625 -9.7578125 C-74.52414795 -10.26006348 -74.52414795 -10.26006348 -75.66064453 -10.77246094 C-150.41452037 -43.89618791 -236.15416553 -25.30792387 -294.41015625 30.2421875 Z M-151.41015625 53.2421875 C-148.7656795 76.60881805 -146.4449226 96.60397182 -128.41015625 113.2421875 C-121.78710166 118.42666606 -114.53826778 122.05746388 -106.41015625 124.2421875 C-105.3634375 124.6340625 -104.31671875 125.0259375 -103.23828125 125.4296875 C-96.72518564 125.11067874 -93.29025192 120.35396171 -88.91015625 115.8671875 C-87.97945313 114.98417969 -87.04875 114.10117188 -86.08984375 113.19140625 C-81.35712599 108.66392673 -81.35712599 108.66392673 -78.96826172 102.77807617 C-79.18506649 100.43329073 -79.64720301 98.4659303 -80.41015625 96.2421875 C-80.72210938 95.20191406 -81.0340625 94.16164062 -81.35546875 93.08984375 C-84.29103457 86.15918671 -87.69931502 80.12304159 -92.41015625 74.2421875 C-92.90902344 73.61699219 -93.40789062 72.99179688 -93.921875 72.34765625 C-106.66435862 58.12871358 -126.39946302 55.08577134 -144.41015625 53.2421875 C-146.75781629 53.15486471 -149.06015519 53.17549828 -151.41015625 53.2421875 Z M-64.03515625 134.1171875 C-64.85242188 134.83648437 -65.6696875 135.55578125 -66.51171875 136.296875 C-68.64296678 138.02772247 -68.64296678 138.02772247 -68.41015625 140.2421875 C-69.02890625 140.4896875 -69.64765625 140.7371875 -70.28515625 140.9921875 C-72.8433937 142.49703306 -73.44953217 143.45962556 -74.41015625 146.2421875 C-73.84122935 148.3056551 -73.84122935 148.3056551 -72.55078125 150.296875 C-72.09944824 151.06966797 -71.64811523 151.84246094 -71.18310547 152.63867188 C-70.42924561 153.86553711 -70.42924561 153.86553711 -69.66015625 155.1171875 C-69.15371582 155.96345703 -68.64727539 156.80972656 -68.12548828 157.68164062 C-58.9315727 172.84343596 -48.02754368 186.47611178 -35.9765625 199.45703125 C-33.8464944 201.76865766 -31.77063867 204.1083173 -29.72265625 206.4921875 C-24.50822378 212.48878484 -18.86017067 217.99149816 -12.828125 223.16015625 C-10.95828426 224.77021298 -9.11200406 226.39782048 -7.2734375 228.04296875 C29.522599 261.91566358 29.522599 261.91566358 74.58984375 279.2421875 C74.0954752 273.31635647 72.87758511 268.75758908 70.27734375 263.4296875 C69.92760498 262.70322021 69.57786621 261.97675293 69.2175293 261.22827148 C59.4132821 241.44903016 45.86822076 223.00587927 31.58984375 206.2421875 C30.68074313 205.15906097 29.77190377 204.07571513 28.86328125 202.9921875 C13.307234 184.53908371 -3.3004971 167.06370129 -22.66259766 152.55712891 C-24.4498887 151.21229103 -26.21716602 149.84374186 -27.984375 148.47265625 C-45.52749924 133.52054497 -45.52749924 133.52054497 -64.03515625 134.1171875 Z " fill="#000000" transform="translate(395.41015625,83.7578125)"/>
<path d="M0 0 C7.83346504 5.28728433 12.78904339 11.8468267 14.625 21.17578125 C15.59676393 29.79006358 14.35258281 36.47580228 10.375 44.125 C5.20869258 50.37895108 -0.71433361 56.62351026 -9 58 C-19.60958506 58.93963814 -27.6824846 57.87665718 -36.75 52.3125 C-43.56816851 45.30493792 -47.89833634 36.87090998 -48.375 27 C-47.87559106 16.67888199 -43.38357339 9.38357339 -36.25 2.25 C-24.94325606 -5.57774581 -12.25695638 -6.50519124 0 0 Z " fill="#000000" transform="translate(165,321)"/>
<path d="M0 0 C8.05008075 5.36144867 14.78076296 12.19131281 16.765625 22 C17.6486734 31.21778595 16.43139252 39.70646733 10.98828125 47.32421875 C4.73105545 54.57405667 -2.52243156 58.51726076 -12.02734375 59.69921875 C-21.08270703 60.07072083 -28.29529999 57.81559725 -35.32421875 52.07421875 C-42.47404464 45.29993927 -45.54190847 38.14986626 -46.32421875 28.44921875 C-46.06128953 19.54468242 -42.54495736 12.22937722 -36.63671875 5.69921875 C-26.77537958 -3.22294526 -12.2248789 -6.56137568 0 0 Z " fill="#000000" transform="translate(163.01171875,135.67578125)"/>
<path d="M0 0 C8.13919076 4.81851397 13.44940179 10.94785315 16.0625 20.08203125 C18.13217821 29.2818646 17.08587134 37.18895307 12.25 45.33203125 C7.40523216 52.30346341 0.78928355 57.77227282 -7.75 59.33203125 C-18.63064864 60.08945257 -26.50132113 59.35384972 -35 52.26953125 C-41.7170119 45.87635663 -45.77053155 38.09715499 -46.0625 28.76953125 C-45.93119509 19.85392759 -42.75617662 12.4602667 -36.609375 6.05078125 C-26.39938707 -3.38702271 -12.95783155 -6.03135909 0 0 Z " fill="#000000" transform="translate(116.75,227.66796875)"/>
</svg>
